<?xml version="1.0" encoding="UTF-8"?>
<svg width="441px" height="445px" viewBox="0 0 441 445" version="1.1" xmlns="http://www.w3.org/2000/svg" xmlns:xlink="http://www.w3.org/1999/xlink">
    <!-- Generator: Sketch 47.1 (45422) - http://www.bohemiancoding.com/sketch -->
    <title>Group 6</title>
    <desc>Created with Sketch.</desc>
    <defs>
        <linearGradient x1="74.220492%" y1="112.546218%" x2="43.1729349%" y2="16.200153%" id="linearGradient-1">
            <stop stop-color="#7941FF" offset="0%"></stop>
            <stop stop-color="#8B5AFF" offset="100%"></stop>
        </linearGradient>
        <linearGradient x1="6.12606291%" y1="50%" x2="50%" y2="0%" id="linearGradient-2">
            <stop stop-color="#7941FF" offset="0%"></stop>
            <stop stop-color="#8B5AFF" offset="100%"></stop>
        </linearGradient>
    </defs>
    <g id="Page-2" stroke="none" stroke-width="1" fill="none" fill-rule="evenodd">
        <g id="Login-v4_1">
            <g id="Group-6" transform="translate(-500.000000, -410.000000)">
                <path d="M459.305201,168.097852 C503.398363,151.815546 544.515078,167.620288 546.198688,168.097852 C566.899468,173.96665 586.355457,182.479765 604.403775,193.888159 C615.905443,201.158648 625.721201,210.314298 634.971668,220.027228 C649.901493,235.703067 663.479985,252.50454 678.164531,268.384839 C687.682889,278.677932 697.65118,288.553249 709.317645,296.658184 C725.716461,308.051077 743.950654,315.40276 763.731638,319.222903 C773.245397,321.060455 782.881028,321.818874 792.570698,322.437419 C802.943699,323.100252 813.24465,322.414168 823.549434,321.975725 C834.235166,321.521411 844.881807,320.244463 855.551443,319.401529 C863.430264,318.778555 871.324031,318.331992 879.202086,317.703482 C888.88409,316.931408 898.583341,316.836559 908.281059,317.022566 C927.62399,317.393102 946.716276,319.529962 965.030951,325.884074 C983.301553,332.223424 998.69051,342.694404 1011.39213,356.843071 C1029.43853,376.944682 1040.01542,400.501067 1046.15966,426.148179 C1050.89929,445.93129 1053.88347,466.111035 1051.26798,486.188764 C1037.45747,592.204563 964.182383,617.734785 1049.16701,672.041596 C1122.41747,718.606319 634.571378,845.457298 407.954931,733.924731 C395.749958,727.917877 582.109652,643.465065 361.957718,531.563045 C141.805784,419.661024 415.212039,184.380159 459.305201,168.097852 Z" id="Shape" fill="url(#linearGradient-1)" transform="translate(666.915993, 469.669966) scale(-1, -1) rotate(-90.000000) translate(-666.915993, -469.669966) "></path>
                <path d="M229.810651,157.021039 C265.481669,143.848782 298.744766,156.634693 300.106793,157.021039 C316.85356,161.768849 332.5933,168.655892 347.194246,177.885192 C356.499004,183.76696 364.439875,191.173808 371.923429,199.031492 C384.001539,211.713121 394.986431,225.305379 406.866113,238.152415 C414.566388,246.479446 422.630657,254.468499 432.068734,261.025327 C445.335247,270.242087 460.086564,276.18954 476.089223,279.280006 C483.785778,280.76657 491.580928,281.380125 499.419794,281.880524 C507.81147,282.41675 516.144857,281.861714 524.481345,281.507016 C533.126018,281.13948 541.739066,280.106439 550.370717,279.424512 C556.74462,278.920531 563.130615,278.559265 569.503899,278.050806 C577.336564,277.426204 585.183181,277.349472 593.028558,277.49995 C608.676835,277.799711 624.122343,279.528413 638.93877,284.66884 C653.719542,289.797324 666.169086,298.268264 676.444595,309.714423 C691.04399,325.976467 699.60061,345.033395 704.57125,365.781705 C708.405576,381.786085 710.819752,398.111339 708.703839,414.354062 C697.531249,500.120002 638.252285,520.773749 707.004173,564.707528 C766.263215,602.37802 371.599598,704.999455 188.268691,614.770494 C178.394964,609.910996 329.158478,541.589342 151.05731,451.061495 C-27.0438577,360.533648 194.139633,170.193295 229.810651,157.021039 Z" id="Shape" fill="url(#linearGradient-2)" transform="translate(397.766134, 400.990486) rotate(-133.000000) translate(-397.766134, -400.990486) "></path>
                <g id="Group-3" transform="translate(611.172538, 546.204912) rotate(-241.000000) translate(-611.172538, -546.204912) translate(382.672538, 308.204912)" fill="#FFFFFF">
                    <circle id="Oval-3" opacity="0.400000006" cx="80.6551161" cy="148.086489" r="1"></circle>
                    <circle id="Oval-3-Copy" opacity="0.300000012" cx="98.1927939" cy="179.759468" r="2.5"></circle>
                    <circle id="Oval-3-Copy-2" opacity="0.5" cx="129.76815" cy="158.138383" r="2"></circle>
                    <circle id="Oval-3-Copy-3" cx="172.051029" cy="264.86892" r="3.5"></circle>
                    <circle id="Oval-3-Copy" opacity="0.300000012" cx="264.171002" cy="140.513083" r="2"></circle>
                    <ellipse id="Oval-3-Copy-10" opacity="0.5" cx="2.44007174" cy="2.97795761" rx="2" ry="2.21000004"></ellipse>
                    <circle id="Oval-3-Copy-2" opacity="0.5" cx="267.593478" cy="179.306527" r="2.5"></circle>
                    <circle id="Oval-3-Copy-3" cx="187.784844" cy="135.959261" r="4.5"></circle>
                    <circle id="Oval-3-Copy-4" opacity="0.400000006" cx="214.664074" cy="213.949745" r="3.5"></circle>
                    <circle id="Oval-3-Copy-5" cx="132.644559" cy="352.058947" r="4"></circle>
                    <circle id="Oval-3-Copy-6" opacity="0.699999988" cx="268.484643" cy="264.726511" r="6"></circle>
                    <circle id="Oval-3-Copy-7" cx="340.757961" cy="233.053532" r="4.5"></circle>
                    <circle id="Oval-3-Copy-9" opacity="0.200000003" cx="452.521706" cy="136" r="4"></circle>
                </g>
            </g>
        </g>
    </g>
</svg>