<?xml version="1.0" encoding="UTF-8"?>
<svg width="701px" height="800px" viewBox="0 0 701 800" version="1.1" xmlns="http://www.w3.org/2000/svg" xmlns:xlink="http://www.w3.org/1999/xlink">
    <!-- Generator: Sketch 47.1 (45422) - http://www.bohemiancoding.com/sketch -->
    <title>Group 5</title>
    <desc>Created with Sketch.</desc>
    <defs>
        <linearGradient x1="38.3041471%" y1="106.704386%" x2="55.7142082%" y2="38.0798985%" id="linearGradient-1">
            <stop stop-color="#7941FF" offset="0%"></stop>
            <stop stop-color="#8B5AFF" offset="100%"></stop>
        </linearGradient>
        <linearGradient x1="79.6769268%" y1="56.9952043%" x2="46.3130641%" y2="-21.8914182%" id="linearGradient-2">
            <stop stop-color="#7941FF" offset="0%"></stop>
            <stop stop-color="#8B5AFF" offset="100%"></stop>
        </linearGradient>
    </defs>
    <g id="Page-2" stroke="none" stroke-width="1" fill="none" fill-rule="evenodd">
        <g id="Login-v4_1" transform="translate(-739.000000, 0.000000)">
            <g id="Group-5" transform="translate(446.000000, -197.000000)">
                <path d="M393.005829,178.507989 C396.292472,177.685296 399.258846,179.593148 402.233346,180.764286 C438.806215,195.156435 473.179865,216.033287 505.066526,244.010278 C525.386969,261.839817 542.728849,284.292366 559.072008,308.111544 C585.449108,346.55366 609.438755,387.756187 635.382511,426.699702 C652.198962,451.941623 669.810329,476.159025 690.421924,496.034889 C719.394348,523.973867 751.609403,542.002518 786.557233,551.370719 C803.365559,555.876977 820.389203,557.73686 837.508318,559.253729 C855.834701,560.879204 874.03379,559.19671 892.23965,558.121508 C911.118547,557.007388 929.92838,553.875905 948.778839,551.808765 C962.698657,550.281036 976.644882,549.185922 990.563346,547.644617 C1007.66892,545.751247 1024.80496,545.518648 1041.93829,545.974795 C1076.1122,546.883468 1109.84328,552.123723 1142.20053,567.706017 C1174.47991,583.252108 1201.66817,608.930265 1224.10862,643.627272 C1255.99189,692.922781 1274.67849,750.690488 1285.53376,813.585319 C1293.90745,862.099767 1296.07214,911.28667 1294.55882,960.823827 C1293.84245,984.279174 1292.74284,1007.73543 1290.84696,1031.09936 C1290.65466,1033.47513 1290.83342,1035.90429 1290.84019,1038.30811 C921.559622,1304.37599 690.85324,1437.40992 598.72104,1437.40992 C491.334493,1437.40992 422.762756,1304.37599 393.005829,1038.30811 C293.933996,820.186907 244.398079,643.67667 244.398079,508.777397 C244.398079,452.609977 293.933996,342.520174 393.005829,178.507989 Z" id="Fill-1" fill="url(#linearGradient-1)" transform="translate(769.701954, 807.859016) scale(-1, 1) rotate(-330.000000) translate(-769.701954, -807.859016) "></path>
                <path d="M907.810651,245.021039 C943.481669,231.848782 976.744766,244.634693 978.106793,245.021039 C994.85356,249.768849 1010.5933,256.655892 1025.19425,265.885192 C1034.499,271.76696 1042.43987,279.173808 1049.92343,287.031492 C1062.00154,299.713121 1072.98643,313.305379 1084.86611,326.152415 C1092.56639,334.479446 1100.63066,342.468499 1110.06873,349.025327 C1123.33525,358.242087 1138.08656,364.18954 1154.08922,367.280006 C1161.78578,368.76657 1169.58093,369.380125 1177.41979,369.880524 C1185.81147,370.41675 1194.14486,369.861714 1202.48135,369.507016 C1211.12602,369.13948 1219.73907,368.106439 1228.37072,367.424512 C1234.74462,366.920531 1241.13062,366.559265 1247.5039,366.050806 C1255.33656,365.426204 1263.18318,365.349472 1271.02856,365.49995 C1286.67684,365.799711 1302.12234,367.528413 1316.93877,372.66884 C1331.71954,377.797324 1344.16909,386.268264 1354.44459,397.714423 C1369.04399,413.976467 1377.60061,433.033395 1382.57125,453.781705 C1386.40558,469.786085 1388.81975,486.111339 1386.70384,502.354062 C1375.53125,588.120002 1316.25229,608.773749 1385.00417,652.707528 C1444.26322,690.37802 1049.5996,792.999455 866.268691,702.770494 C856.394964,697.910996 1007.15848,629.589342 829.05731,539.061495 C650.956142,448.533648 872.139633,258.193295 907.810651,245.021039 Z" id="Shape" fill="url(#linearGradient-2)" transform="translate(1075.766134, 488.990486) rotate(-133.000000) translate(-1075.766134, -488.990486) "></path>
            </g>
        </g>
    </g>
</svg>