<svg width="118px" height="30px" viewBox="0 0 118 38" version="1.1" xmlns="http://www.w3.org/2000/svg" xmlns:xlink="http://www.w3.org/1999/xlink">
    <!-- Generator: Sketch 46.2 (44496) - http://www.bohemiancoding.com/sketch -->
    <desc>Created with Sketch.</desc>
    <defs></defs>
    <g id="Page-1" stroke="none" stroke-width="1" fill="none" fill-rule="evenodd">
        <g id="Hoverstate-icons" transform="translate(-30.000000, -16.000000)" fill="#8F64FE">
            <g id="Header">
                <g id="Logo" transform="translate(30.000000, 16.000000)">
                    <path d="M72.4451011,22.4103142 C72.6243826,20.8394551 73.4275004,20.0540359 74.854471,20.0540359 C76.4864872,20.0540359 77.3024831,21.0813906 77.3024831,23.136131 L77.3024831,30.2555159 L80.186267,30.2555159 L80.186267,23.0724513 C80.186267,21.9347026 80.0666445,21.0771585 79.8273961,20.4997934 C79.579603,19.8545031 79.1566523,19.2729014 78.5585312,18.754971 C77.5844482,17.9143954 76.3497738,17.4941139 74.854471,17.4941139 C73.9570074,17.4941139 73.1538867,17.6437948 72.4451011,17.9431593 L72.4451011,6.84823848 L69.4900382,6.84823848 L69.4900382,30.2691645 L72.4451011,30.2691645 L72.4451011,22.4103142 Z M114.85366,6.84823848 L117.815769,6.84823848 L117.815769,30.2691645 L114.85366,30.2691645 L114.85366,6.84823848 Z M104.364598,17.5077625 L104.364598,24.6271474 C104.364598,26.6818878 105.180594,27.7092425 106.81261,27.7092425 C108.444626,27.7092425 109.260622,26.6818878 109.260622,24.6271474 L109.260622,17.5077625 L112.144406,17.5077625 L112.144406,24.6908271 C112.144406,25.6842346 112.020511,26.5417787 111.772718,27.263485 C111.53347,27.9087753 111.119064,28.490377 110.529487,29.0083074 C109.555404,29.848883 108.316458,30.2691645 106.81261,30.2691645 C105.317307,30.2691645 104.082633,29.848883 103.10855,29.0083074 C102.510429,28.490377 102.087478,27.9087753 101.839685,27.263485 C101.600437,26.6861199 101.480814,25.8285759 101.480814,24.6908271 L101.480814,17.5077625 L104.364598,17.5077625 Z M92.2982766,30.2691645 L92.2982766,17.4870824 L92.2982766,14.6811684 L92.2982766,11.3942756 C92.2982766,9.80931242 92.7332167,8.642026 93.60311,7.89238127 C94.4517864,7.1962826 95.5179201,6.84823848 96.8015431,6.84823848 L98.6668107,6.84823848 L98.6668107,9.58436275 L96.7732109,9.58436275 C95.7760162,9.55223512 95.2986429,10.0127243 95.3410767,10.965844 L95.3410767,14.5050797 L98.6668107,14.5050797 L98.6668107,17.3576284 L95.3410767,17.3576284 L95.3410767,30.2691645 L92.2982766,30.2691645 Z M82.9676336,14.8940906 L82.9676336,6.84823848 L85.9318523,6.84823848 L85.9318523,14.5050797 L89.4842731,14.5050797 L89.4842731,17.3603938 L85.9318523,17.3603938 L85.9318523,30.2691645 L82.9676336,30.2691645 L82.9676336,17.5105279 L82.9676336,14.8940906 Z M65.8201976,27.0758645 C65.3317088,27.9125343 64.6926708,28.59864 63.9060133,29.1313163 C64.2445846,29.5221816 64.533909,29.9678658 64.7738414,30.4674388 C65.0937023,31.1334343 65.2540996,31.839421 65.2540996,32.5811584 C65.2540996,33.2744078 65.1100336,33.9321885 64.8224718,34.5505489 C64.5369417,35.1645405 64.1414883,35.699644 63.6380066,36.1534736 C63.1393059,36.6029937 62.5625079,36.9604097 61.9094809,37.2253332 C61.2512449,37.4923701 60.547979,37.6257374 59.8022053,37.6257374 L59.4319806,37.6257374 L59.4319806,34.8906381 L59.8022053,34.8906381 C60.1791067,34.8906381 60.5365152,34.8280825 60.8763956,34.7030367 C61.2146954,34.5785724 61.5047896,34.4076666 61.7490961,34.1901717 C61.994661,33.9715565 62.1873386,33.7244149 62.3290553,33.4473048 C62.4646492,33.1821673 62.5322652,32.8951638 62.5322652,32.5811584 C62.5322652,32.2592453 62.4728247,31.9648936 62.3543753,31.6946777 C62.2333466,31.4185778 62.065647,31.1733602 61.849746,30.9571276 C61.6336298,30.7406794 61.3882802,30.5723736 61.1117937,30.4508028 C60.8405969,30.3315579 60.5449815,30.2716787 60.2217927,30.2716787 C59.3329092,30.2716787 58.4982598,30.1020094 57.7209362,29.7624432 C56.9484753,29.4250012 56.2688338,28.9629602 55.6841422,28.3773705 C55.0992325,27.7915623 54.6375446,27.1103523 54.3002661,26.3358918 C53.9606161,25.5559858 53.7908611,24.718347 53.7908611,23.8263266 C53.7908611,22.9350463 53.9603232,22.0905736 54.2991213,21.2960718 C54.636683,20.5044693 55.0993211,19.8177202 55.6860164,19.2383997 C56.2703611,18.6614002 56.9493522,18.2039227 57.7209362,17.8668638 C58.4982598,17.5272976 59.3329092,17.3576284 60.2217927,17.3576284 C61.1103143,17.3576284 61.9483864,17.5271542 62.7330005,17.8662973 C63.5127646,18.2033439 64.1961124,18.6609832 64.7808794,19.2383997 C65.3675747,19.8177202 65.8302128,20.5044693 66.1677745,21.2960718 C66.5065726,22.0905736 66.6760347,22.9350463 66.6760347,23.8263266 C66.6760347,25.0133707 66.3905832,26.098924 65.8201976,27.0758645 Z M60.2334479,20.0600429 C59.7335131,20.0600429 59.2639925,20.154649 58.8220806,20.3438656 C58.3793201,20.5334456 57.9976042,20.7952146 57.6743435,21.130285 C57.348383,21.4681539 57.0882572,21.8624114 56.8931044,22.3151385 C56.7008684,22.761099 56.6048645,23.2343694 56.6048645,23.7383293 C56.6048645,24.2422893 56.7008684,24.7155597 56.8931044,25.1615202 C57.0877904,25.6131646 57.3470267,26.0025657 57.6716454,26.3320337 C57.9964767,26.6617176 58.3806629,26.9251807 58.8264411,27.1231221 C59.2671875,27.3188292 59.7351602,27.4166158 60.2334479,27.4166158 C60.7472711,27.4166158 61.2228473,27.3186806 61.6632591,27.1231221 C62.1090373,26.9251807 62.4932235,26.6617176 62.8180548,26.3320337 C63.141558,26.0036979 63.3962959,25.6158829 63.5832724,25.1660585 C63.7691403,24.7189011 63.8620313,24.2440162 63.8620313,23.7383293 C63.8620313,23.2326425 63.7691403,22.7577576 63.5832724,22.3106002 C63.3958442,21.8596891 63.1402154,21.4670118 62.8153567,21.130285 C62.492096,20.7952146 62.1103801,20.5334456 61.6676196,20.3438656 C61.2260342,20.1547888 60.7489048,20.0600429 60.2334479,20.0600429 Z M49.4751373,11.5023969 C49.8884569,11.5023969 50.2420695,11.6467104 50.5359856,11.9353418 C50.8299018,12.2239732 50.9768576,12.5777742 50.9768576,12.9967553 C50.9768576,13.4064257 50.8299018,13.7602266 50.5359856,14.0581687 C50.2420695,14.3561109 49.8884569,14.5050797 49.4751373,14.5050797 C49.0893724,14.5050797 48.7495369,14.3537832 48.4556208,14.0511858 C48.1617046,13.7485883 48.0147487,13.397115 48.0147487,12.9967553 C48.0147487,12.6057063 48.1617046,12.2588882 48.4556208,11.9562908 C48.7495369,11.6536933 49.0893724,11.5023969 49.4751373,11.5023969 Z M48.0147487,17.3576284 L50.9768576,17.3576284 L50.9768576,30.2691645 L48.0147487,30.2691645 L48.0147487,17.3576284 Z M42.4035752,6.85055531 L45.3656841,6.85055531 L45.3656841,30.2733337 L42.4035752,30.2733337 L42.4035752,6.85055531 Z"></path>
                    <path d="M2.74046301,33.2970717 C2.74703775,31.9034582 3.93100622,30.7137817 5.2966535,30.728584 C6.6721629,30.7434909 7.82289807,31.9341089 7.81724789,33.336562 C7.81180318,34.7135949 6.63744,35.8903521 5.27030314,35.8888875 C3.89725927,35.8873707 2.73383689,34.6955497 2.74046301,33.2970717 Z M32.1545559,26.3511242 C32.1670427,25.1639121 33.2062173,24.1293605 34.385302,24.1303151 C35.6103904,24.1313431 36.6178005,25.1694928 36.6077235,26.4205153 C36.5980846,27.6208712 35.578991,28.6188548 34.3717929,28.6099698 C33.1588992,28.6010848 32.1417041,27.5649178 32.1545559,26.3511242 Z M1.30137433,19.7326012 C0.567153596,19.7186552 -0.0134961497,19.0859558 0.000238720388,18.3148011 C0.0135409962,17.5690838 0.621065665,16.9604272 1.34587747,16.966675 C2.09842939,16.9732017 2.68594657,17.6034466 2.67134651,18.3887146 C2.65723312,19.1516691 2.05051957,19.746826 1.30137433,19.7326012 Z M32.0517538,3.51651913 C31.0858568,3.50918395 30.3296543,2.74169785 30.3274835,1.76638185 C30.3253128,0.770020885 31.0908061,-0.00156942554 32.0801473,2.39718875e-06 C33.070704,0.00157421991 33.8281222,0.772116649 33.8233465,1.77354237 C33.8185709,2.76710898 33.0491702,3.52411627 32.0517538,3.51651913 Z M19.0204326,6.14840802 C25.877188,6.14654187 31.3940625,11.7080588 31.3850654,18.6131047 C31.3761661,25.4252361 25.8062871,31.0046287 19.0199436,30.9996196 C12.2198112,30.9945122 6.67222923,25.3925294 6.68005278,18.5387534 C6.68787633,11.697353 12.2124766,6.15037239 19.0204326,6.14840802 Z M14.8333875,25.1871931 C16.5795037,25.1871931 17.0837968,23.1464933 18.9267928,23.1464933 C20.7697888,23.1464933 21.2740819,25.1871931 23.0201981,25.1871931 C24.448735,25.1871931 25.6068373,24.0220477 25.6068373,22.5851845 C25.6068373,21.148217 24.448735,19.9830716 23.0201981,19.9830716 C21.2740819,19.9830716 20.7697888,22.0237714 18.9267928,22.0237714 C17.9011101,22.0237714 17.2572479,21.3713654 16.6487184,20.7590361 C16.0401888,20.1468111 15.3915068,19.4994617 15.3915068,18.4676217 C15.3915068,16.6137492 17.4201304,16.10648 17.4201304,14.3499548 C17.4201304,12.9129873 16.2619244,11.7480504 14.8333875,11.7480504 C13.4048506,11.7480504 12.2467483,12.9129873 12.2467483,14.3499548 C12.2467483,16.10648 14.2753718,16.6137492 14.2753718,18.4676217 C14.2753718,20.32139 12.2467483,20.8286593 12.2467483,22.5851845 C12.2467483,24.0220477 13.4048506,25.1871931 14.8333875,25.1871931 Z" id="Combined-Shape"></path>
                </g>
            </g>
        </g>
    </g>
</svg>