<svg width="20px" height="19px" viewBox="0 0 20 19" version="1.1" xmlns="http://www.w3.org/2000/svg" xmlns:xlink="http://www.w3.org/1999/xlink">
    <!-- Generator: Sketch 46.2 (44496) - http://www.bohemiancoding.com/sketch -->
    <desc>Created with Sketch.</desc>
    <defs></defs>
    <g id="Page-1" stroke="none" stroke-width="1" fill="none" fill-rule="evenodd">
        <g id="Default" transform="translate(-21.000000, -355.000000)" fill="#7C92A7">
            <g id="Menu">
                <g id="Icons" transform="translate(19.000000, 113.000000)">
                    <path d="M10.75811,258.74622 C9.50413381,258.746063 8.28060611,258.363517 7.25376346,257.650556 C7.25376346,257.650556 4.32750006,260.433702 2.40949119,260.991291 C2.10074957,261.081183 2.04746258,260.953222 2.01096906,260.558144 C1.94617677,259.960003 2.17099643,259.366778 2.617149,258.958635 C5.19107233,256.312407 15.3669507,246.567238 15.3669507,246.567238 L4.85810935,254.326136 C4.69640262,253.783951 4.61258108,253.22191 4.60911375,252.656569 C4.60911375,249.293761 16.582863,242 19.977729,242 C21.5143322,242 21.5143322,242 21.5143322,243.522413 C21.5159469,246.88554 14.152976,258.74622 10.75811,258.74622 Z" id="Path"></path>
                </g>
            </g>
        </g>
    </g>
</svg>
