<?xml version="1.0" encoding="UTF-8"?>
<svg width="38px" height="39px" viewBox="0 0 38 39" version="1.1" xmlns="http://www.w3.org/2000/svg" xmlns:xlink="http://www.w3.org/1999/xlink">
    <!-- Generator: Sketch 46.1 (44463) - http://www.bohemiancoding.com/sketch -->
    <title>in</title>
    <desc>Created with Sketch.</desc>
    <defs>
        <linearGradient x1="50%" y1="0%" x2="50%" y2="100%" id="linearGradient-1">
            <stop stop-color="#8F64FF" offset="0%"></stop>
            <stop stop-color="#AD8DFF" offset="100%"></stop>
        </linearGradient>
    </defs>
    <g id="Page-1" stroke="none" stroke-width="1" fill="none" fill-rule="evenodd">
        <g id="F" transform="translate(-915.000000, -5196.000000)" fill-rule="nonzero">
            <g id="Footer" transform="translate(0.000000, 4926.000000)">
                <g id="Sections-/-Footer" transform="translate(124.000000, 58.571429)">
                    <g id="Social" transform="translate(677.828571, 211.942857)">
                        <g id="in" transform="translate(113.168098, 0.000000)">
                            <g id="Page-1">
                                <g id="Compose-|-0-Copy-4">
                                    <g id="Boxes">
                                        <g id="Social">
                                            <g id="Box-3">
                                                <g id="Group">
                                                    <g id="Tw">
                                                        <g id="Group-5">
                                                            <path d="M0.416476775,19.0285714 C0.416476775,8.62863297 8.80731141,0.197818016 19.1579316,0.197818016 C29.5085518,0.197818016 37.8993865,8.62863297 37.8993865,19.0285714 C37.8993865,29.4285099 29.5085518,37.8593248 19.1579316,37.8593248 C8.80731141,37.8593248 0.416476775,29.4285099 0.416476775,19.0285714 Z" id="back" fill="url(#linearGradient-1)"></path>
                                                            <path d="M15.2157896,15.6852707 L15.2157896,26.9790342 L11.4665734,26.9790342 L11.4665734,15.6852707 L15.2157896,15.6852707 Z M15.4627224,12.1916541 C15.4627224,13.2760634 14.6485478,14.1437708 13.3412564,14.1437708 L13.3172969,14.1437708 C12.0585982,14.1437708 11.2448729,13.2760634 11.2448729,12.1916541 C11.2448729,11.0843077 12.0833814,10.2408865 13.3659646,10.2408865 C14.6485478,10.2408865 15.4383885,11.0843077 15.4627224,12.1916541 Z M28.7368974,20.5035353 L28.7367477,26.9790342 L24.9876813,26.9790342 L24.9876813,20.9368643 C24.9876813,19.4192009 24.4451478,18.3835888 23.0879157,18.3835888 C22.0521155,18.3835888 21.4351578,19.0817425 21.1641905,19.7560597 C21.065058,19.9977225 21.0407241,20.3344314 21.0407241,20.6719647 L21.0407241,26.979334 L17.2910587,26.979334 C17.2910587,26.979334 17.3404752,16.7453189 17.2910587,15.6855706 L21.0407241,15.6855706 L21.0407241,17.2852374 C21.5383335,16.5162489 22.4295529,15.4200712 24.42014,15.4200712 C26.8872971,15.4200712 28.7368974,17.0345797 28.7368974,20.5035353 Z" id="Shape" fill="#FFFFFF"></path>
                                                        </g>
                                                    </g>
                                                </g>
                                            </g>
                                        </g>
                                    </g>
                                </g>
                            </g>
                        </g>
                    </g>
                </g>
            </g>
        </g>
    </g>
</svg>