<?xml version="1.0" encoding="UTF-8"?>
<svg width="488px" height="373px" viewBox="0 0 488 373" version="1.1" xmlns="http://www.w3.org/2000/svg" xmlns:xlink="http://www.w3.org/1999/xlink">
    <!-- Generator: Sketch 46.1 (44463) - http://www.bohemiancoding.com/sketch -->
    <title>Pattern-Copy-3</title>
    <desc>Created with Sketch.</desc>
    <defs>
        <rect id="path-1" x="0" y="0" width="511.19007" height="557.524539"></rect>
        <linearGradient x1="53.0105352%" y1="89.1365581%" x2="53.0105341%" y2="26.0126721%" id="linearGradient-3">
            <stop stop-color="#C8D4FF" offset="0%"></stop>
            <stop stop-color="#FBFCFF" offset="100%"></stop>
        </linearGradient>
        <linearGradient x1="34.5040332%" y1="112.417659%" x2="55.4071173%" y2="0%" id="linearGradient-4">
            <stop stop-color="#BBCAFF" offset="0%"></stop>
            <stop stop-color="#FBFCFF" offset="100%"></stop>
        </linearGradient>
        <linearGradient x1="53.0105352%" y1="57.5461518%" x2="53.0105341%" y2="45.3748611%" id="linearGradient-5">
            <stop stop-color="#C8D4FF" offset="0%"></stop>
            <stop stop-color="#FBFCFF" offset="100%"></stop>
        </linearGradient>
    </defs>
    <g id="Page-1" stroke="none" stroke-width="1" fill="none" fill-rule="evenodd">
        <g id="F" transform="translate(-1.000000, -4926.000000)">
            <g id="Footer" transform="translate(0.000000, 4926.000000)">
                <g id="s3">
                    <g id="Pattern-Copy-3" transform="translate(256.325667, 279.000000) scale(-1, 1) translate(-256.325667, -279.000000) translate(0.325667, 0.000000)">
                        <g id="Group-8-Clipped">
                            <mask id="mask-2" fill="white">
                                <use xlink:href="#path-1"></use>
                            </mask>
                            <g id="path-1"></g>
                            <g id="Group-8" mask="url(#mask-2)">
                                <g transform="translate(-101.230743, -593.786298)" id="Group">
                                    <g transform="translate(0.479653, 0.186404)">
                                        <path d="M322.672156,1070.57643 C322.672156,1168.26598 402.133703,1247.4563 500.126091,1247.4563 C598.118481,1247.4563 677.580026,1168.26598 677.580026,1070.57643 C677.580026,951.185183 536.022042,916.694851 536.022042,790.679015 C536.022042,664.656098 677.580026,630.165766 677.580026,510.781596 C677.580026,413.092048 598.118481,333.894647 500.126091,333.894647 C402.133703,333.894647 322.672156,413.092048 322.672156,510.781596 C322.672156,630.165766 464.230142,664.656098 464.230142,790.679015 C464.230142,916.694851 322.672156,951.185183 322.672156,1070.57643 Z" id="Fill-1-Copy-2" fill="url(#linearGradient-4)" fill-rule="nonzero" transform="translate(500.126091, 790.675474) rotate(-45.000000) translate(-500.126091, -790.675474) "></path>
                                        <path d="M271.303911,728.67229 C271.303911,826.361835 350.765459,905.552152 448.757846,905.552152 C546.750234,905.552152 626.211779,826.361835 626.211779,728.67229 C626.211779,609.281034 484.653796,574.790702 484.653796,448.774868 C484.653796,322.75195 626.211779,288.261616 626.211779,168.877449 C626.211779,71.1879007 546.750234,-8.00950122 448.757846,-8.00950122 C350.765459,-8.00950122 271.303911,71.1879007 271.303911,168.877449 C271.303911,288.261616 412.861897,322.75195 412.861897,448.774868 C412.861897,574.790702 271.303911,609.281034 271.303911,728.67229 Z" id="Fill-1-Copy" fill="url(#linearGradient-5)" fill-rule="nonzero" transform="translate(448.757845, 448.771326) rotate(-45.000000) translate(-448.757845, -448.771326) "></path>
                                        <path d="M740.385024,1188.19446 C740.385024,1285.88402 819.846574,1365.07433 917.838961,1365.07433 C1015.83135,1365.07433 1095.2929,1285.88402 1095.2929,1188.19446 C1095.2929,1068.80321 953.734909,1034.31288 953.734909,908.297046 C953.734909,782.274129 1095.2929,747.783792 1095.2929,628.399627 C1095.2929,530.710077 1015.83135,451.512677 917.838961,451.512677 C819.846574,451.512677 740.385024,530.710077 740.385024,628.399627 C740.385024,747.783792 881.943013,782.274129 881.943013,908.297046 C881.943013,1034.31288 740.385024,1068.80321 740.385024,1188.19446 Z" id="Fill-1-Copy" fill="url(#linearGradient-5)" fill-rule="nonzero" transform="translate(917.838961, 908.293505) rotate(-45.000000) translate(-917.838961, -908.293505) "></path>
                                    </g>
                                </g>
                            </g>
                        </g>
                    </g>
                </g>
            </g>
        </g>
    </g>
</svg>