<?xml version="1.0" encoding="UTF-8"?>
<svg width="54px" height="51px" viewBox="0 0 54 51" version="1.1" xmlns="http://www.w3.org/2000/svg" xmlns:xlink="http://www.w3.org/1999/xlink">
    <!-- Generator: Sketch 42 (36781) - http://www.bohemiancoding.com/sketch -->
    <title>Logo Purple</title>
    <desc>Created with Sketch.</desc>
    <defs>
        <linearGradient x1="243.68052%" y1="-109.013948%" x2="7.93764584%" y2="168.203824%" id="linearGradient-1">
            <stop stop-color="#FFFFFF" offset="0%"></stop>
            <stop stop-color="#6827FF" offset="100%"></stop>
        </linearGradient>
    </defs>
    <g id="Page-1" stroke="none" stroke-width="1" fill="none" fill-rule="evenodd">
        <g id="Footer-Copy" transform="translate(-123.000000, -63.000000)">
            <g id="Sections-/-Footer" transform="translate(123.000000, 56.571429)">
                <g id="Logo-Purple" transform="translate(0.000000, 7.000000)">
                    <path d="M3.97999128,46.6689796 C3.98944514,44.7335887 5.69187828,43.0814168 7.65554812,43.1019736 C9.63339875,43.1226757 11.2880456,44.7761551 11.2799212,46.723822 C11.2720922,48.6361864 9.58347056,50.2704164 7.61765883,50.2683826 C5.64335339,50.266276 3.97046356,48.611126 3.97999128,46.6689796 Z M46.6982693,37.1484817 C46.7169432,35.3834513 48.2710279,33.8453814 50.0343477,33.8468006 C51.8664662,33.8483289 53.3730471,35.391748 53.3579769,37.2516456 C53.3435619,39.0362171 51.8195084,40.5199212 50.014145,40.5067119 C48.2002636,40.4935026 46.6790494,38.953031 46.6982693,37.1484817 Z M1.88999414,27.6781808 C0.823680739,27.6586197 -0.0196005433,26.7711738 0.000346695123,25.6895258 C0.019665674,24.6435571 0.901977577,23.7898345 1.95462633,23.7985978 C3.04756222,23.8077524 3.90081712,24.6917555 3.87961337,25.7931994 C3.8591164,26.8633455 2.97798248,27.698133 1.88999414,27.6781808 Z M46.4813407,4.93992044 C45.1164433,4.92961616 44.0478626,3.85147037 44.0447951,2.4813702 C44.0417277,1.08170659 45.1234371,-0.00220469077 46.5214631,3.36751238e-06 C47.9212069,0.0022114258 48.9915054,1.08465067 48.9847569,2.49142914 C48.9780085,3.88716731 47.8907777,4.95059272 46.4813407,4.93992044 Z M27.5667521,7.0000007 C37.8830952,6.9972095 46.1835182,15.3155782 46.1699816,25.6434652 C46.1565922,35.8323798 37.776421,44.1774853 27.5660164,44.1699931 C17.3348655,44.162354 8.9882415,35.7834603 9.00001243,25.5322579 C9.01178337,15.2995655 17.3238302,7.00293881 27.5667521,7.0000007 Z" id="Logo" fill="url(#linearGradient-1)"></path>
                    <path d="M20.886344,35.1950868 C23.5098286,35.1950868 24.2675131,32.128514 27.0365566,32.128514 C29.8056001,32.128514 30.5632846,35.1950868 33.1867692,35.1950868 C35.3331009,35.1950868 37.0731132,33.4442153 37.0731132,31.2850316 C37.0731132,29.1256912 35.3331009,27.3748197 33.1867692,27.3748197 C30.5632846,27.3748197 29.8056001,30.4413925 27.0365566,30.4413925 C25.4955007,30.4413925 24.528118,29.4610178 23.6138215,28.5408666 C22.699525,27.620872 21.7249007,26.648096 21.7249007,25.0975434 C21.7249007,22.3117171 24.7728437,21.5494404 24.7728437,18.9098986 C24.7728437,16.7505583 23.0326757,15 20.886344,15 C18.7400123,15 17,16.7505583 17,18.9098986 C17,21.5494404 20.047943,22.3117171 20.047943,25.0975434 C20.047943,27.883213 17,28.6454898 17,31.2850316 C17,33.4442153 18.7400123,35.1950868 20.886344,35.1950868 Z" id="Fill-1" fill="#FFFFFF"></path>
                </g>
            </g>
        </g>
    </g>
</svg>