<?xml version="1.0" encoding="UTF-8"?>
<svg width="38px" height="39px" viewBox="0 0 38 39" version="1.1" xmlns="http://www.w3.org/2000/svg" xmlns:xlink="http://www.w3.org/1999/xlink">
    <!-- Generator: Sketch 46.1 (44463) - http://www.bohemiancoding.com/sketch -->
    <title>Tw</title>
    <desc>Created with Sketch.</desc>
    <defs>
        <linearGradient x1="50%" y1="0%" x2="50%" y2="100%" id="linearGradient-1">
            <stop stop-color="#8F64FF" offset="0%"></stop>
            <stop stop-color="#AD8DFF" offset="100%"></stop>
        </linearGradient>
    </defs>
    <g id="Page-1" stroke="none" stroke-width="1" fill="none" fill-rule="evenodd">
        <g id="F" transform="translate(-802.000000, -5196.000000)" fill-rule="nonzero">
            <g id="Footer" transform="translate(0.000000, 4926.000000)">
                <g id="Sections-/-Footer" transform="translate(124.000000, 58.571429)">
                    <g id="Social" transform="translate(677.828571, 211.942857)">
                        <g id="Tw">
                            <g id="Page-1">
                                <g id="Compose-|-0-Copy-4">
                                    <g id="Boxes">
                                        <g id="Social">
                                            <g id="Box-1">
                                                <g id="Group">
                                                    <g id="Tw">
                                                        <g id="Group-4">
                                                            <path d="M0.416476775,19.0285714 C0.416476775,8.62863297 8.80731141,0.197818016 19.1579316,0.197818016 C29.5085518,0.197818016 37.8993865,8.62863297 37.8993865,19.0285714 C37.8993865,29.4285099 29.5085518,37.8593248 19.1579316,37.8593248 C8.80731141,37.8593248 0.416476775,29.4285099 0.416476775,19.0285714 Z" id="back" fill="url(#linearGradient-1)"></path>
                                                            <path d="M19.3338024,16.3138049 L19.3699137,16.892993 L18.7680589,16.8220719 C16.5773072,16.5502082 14.6634087,15.6282354 13.0384005,14.0797939 L12.243952,13.3114832 L12.0393213,13.8788511 C11.6059858,15.1436086 11.8828391,16.4792873 12.7856214,17.3776197 C13.2671053,17.8740666 13.1587714,17.9449876 12.3282117,17.6494835 C12.0393213,17.5549222 11.7865423,17.4840012 11.7624681,17.5194617 C11.6782084,17.6022028 11.9670988,18.6778377 12.1958036,19.1033636 C12.5087682,19.6943719 13.1467343,20.2735599 13.844886,20.6163447 L14.4347038,20.8882085 L13.7365521,20.9000286 C13.0624747,20.9000286 13.0384005,20.9118488 13.1106231,21.1600723 C13.351365,21.9283829 14.3022957,22.7439743 15.3615603,23.0985792 L16.1078604,23.3468026 L15.457857,23.7250479 C14.4948893,24.2687755 13.3634021,24.5760997 12.2319149,24.59974 C11.6902455,24.6115601 11.2448729,24.6588408 11.2448729,24.6943013 C11.2448729,24.812503 12.7133989,25.4744321 13.5680327,25.7344758 C16.1319346,26.5027865 19.1773202,26.1718219 21.4643688,24.8597837 C23.0893769,23.9259907 24.7143851,22.0702249 25.4727223,20.2735599 C25.8819835,19.3161267 26.2912448,17.5667424 26.2912448,16.7275107 C26.2912448,16.1837831 26.3273561,16.1128621 27.0014337,15.4627531 C27.3986579,15.0845078 27.7718079,14.6708021 27.8440304,14.5526004 C27.9644014,14.3280173 27.9523643,14.3280173 27.3384724,14.5289601 C26.315319,14.8835651 26.1708739,14.8362844 26.6764319,14.304377 C27.049582,13.9261318 27.4949546,13.2405622 27.4949546,13.0396195 C27.4949546,13.0041589 27.3143982,13.0632597 27.1097675,13.1696412 C26.8930998,13.2878429 26.4116158,13.4651453 26.0505029,13.5715268 L25.4004997,13.7724696 L24.8106818,13.3824042 C24.4856802,13.1696412 24.0282705,12.933238 23.7875286,12.862317 C23.1736366,12.6968347 22.234743,12.720475 21.6810365,12.9095976 C20.1763993,13.441505 19.2254686,14.812644 19.3338024,16.3138049 Z" id="Shape" fill="#FFFFFF"></path>
                                                        </g>
                                                    </g>
                                                </g>
                                            </g>
                                        </g>
                                    </g>
                                </g>
                            </g>
                        </g>
                    </g>
                </g>
            </g>
        </g>
    </g>
</svg>