<?xml version="1.0" encoding="UTF-8"?>
<svg width="107px" height="35px" viewBox="0 0 107 35" version="1.1" xmlns="http://www.w3.org/2000/svg" xmlns:xlink="http://www.w3.org/1999/xlink">
    <!-- Generator: Sketch 47.1 (45422) - http://www.bohemiancoding.com/sketch -->
    <title>Logo</title>
    <desc>Created with Sketch.</desc>
    <defs></defs>
    <g id="Page-2" stroke="none" stroke-width="1" fill="none" fill-rule="evenodd">
        <g id="Login-v4_1" transform="translate(-493.000000, -70.000000)" fill="#FFFFFF">
            <g id="Group-2" transform="translate(493.000000, 70.000000)">
                <g id="Logo">
                    <path d="M65.6644611,21.0460529 C65.8277979,19.6054302 66.5594889,18.8851283 67.859549,18.8851283 C69.3464187,18.8851283 70.0898424,19.8273074 70.0898424,21.7116939 L70.0898424,28.2408268 L72.7171514,28.2408268 L72.7171514,21.6532938 C72.7171514,20.6098732 72.6081678,19.8234262 72.3901974,19.2939291 C72.1644423,18.7021383 71.7791075,18.1687559 71.2341814,17.693766 C70.3467304,16.9228806 69.2218642,16.5374437 67.859549,16.5374437 C67.0419031,16.5374437 66.3102095,16.6747149 65.6644611,16.9492597 L65.6644611,6.77419355 L62.9722125,6.77419355 L62.9722125,28.2533438 L65.6644611,28.2533438 L65.6644611,21.0460529 Z M104.301332,6.77419355 L107,6.77419355 L107,28.2533438 L104.301332,28.2533438 L104.301332,6.77419355 Z M94.7451354,16.5499607 L94.7451354,23.0790936 C94.7451354,24.9634801 95.4885591,25.9056592 96.9754288,25.9056592 C98.4622985,25.9056592 99.2057222,24.9634801 99.2057222,23.0790936 L99.2057222,16.5499607 L101.833031,16.5499607 L101.833031,23.1374937 C101.833031,24.0485401 101.720155,24.8349871 101.4944,25.4968584 C101.27643,26.0886492 100.89888,26.6220316 100.361738,27.0970215 C99.4742871,27.8679069 98.3455286,28.2533438 96.9754288,28.2533438 C95.6131136,28.2533438 94.4882474,27.8679069 93.6007964,27.0970215 C93.0558704,26.6220316 92.6705356,26.0886492 92.4447805,25.4968584 C92.2268101,24.9673613 92.1178265,24.1809143 92.1178265,23.1374937 L92.1178265,16.5499607 L94.7451354,16.5499607 Z M83.7519558,28.2533438 L83.7519558,16.5309951 L83.7519558,13.9577131 L83.7519558,10.943329 C83.7519558,9.48977158 84.1482137,8.41926222 84.9407413,7.73176884 C85.713939,7.09338212 86.6852541,6.77419355 87.8547156,6.77419355 L89.5540919,6.77419355 L89.5540919,9.28347198 L87.8289032,9.28347198 C86.9203959,9.25400798 86.4854787,9.67631901 86.5241386,10.5504177 L86.5241386,13.7962234 L89.5540919,13.7962234 L89.5540919,16.4122738 L86.5241386,16.4122738 L86.5241386,28.2533438 L83.7519558,28.2533438 Z M75.2511517,14.1529824 L75.2511517,6.77419355 L77.9517419,6.77419355 L77.9517419,13.7962234 L81.1882212,13.7962234 L81.1882212,16.4148099 L77.9517419,16.4148099 L77.9517419,28.2533438 L75.2511517,28.2533438 L75.2511517,16.5524968 L75.2511517,14.1529824 Z M59.6287563,25.3247931 C59.1837122,26.0920965 58.6015083,26.7213187 57.8848138,27.209832 C58.1932736,27.5682916 58.4568663,27.9770251 58.6754599,28.4351796 C58.9668734,29.045959 59.1130054,29.693414 59.1130054,30.3736556 C59.1130054,31.0094292 58.9817521,31.6126748 58.7197652,32.1797684 C58.4596293,32.7428553 58.0993463,33.2335947 57.6406427,33.6497983 C57.186295,34.0620496 56.6607956,34.3898331 56.0658469,34.6327925 C55.4661523,34.8776899 54.8254328,35 54.1459859,35 L53.8086878,35 L53.8086878,32.4916616 L54.1459859,32.4916616 C54.4893669,32.4916616 54.8149885,32.4342923 55.124641,32.3196137 C55.4328534,32.2054685 55.6971476,32.0487321 55.9197262,31.8492693 C56.1434512,31.6487789 56.3189927,31.4221273 56.4481056,31.1679918 C56.5716402,30.9248362 56.6332426,30.6616275 56.6332426,30.3736556 C56.6332426,30.0784316 56.5790886,29.8084839 56.4711737,29.560671 C56.3609089,29.3074619 56.208124,29.0825748 56.0114246,28.8842695 C55.8145291,28.6857665 55.5910002,28.5314146 55.3391035,28.4199229 C55.0920261,28.3105644 54.8227018,28.2556496 54.5282565,28.2556496 C53.7184276,28.2556496 52.9580094,28.1000472 52.2498185,27.7886336 C51.5460579,27.4791682 50.9268617,27.0554339 50.3941708,26.5183941 C49.8612812,25.981154 49.4406544,25.3564215 49.1333724,24.6461698 C48.8239298,23.9309241 48.6692723,23.162732 48.6692723,22.344667 C48.6692723,21.5272807 48.823663,20.7528214 49.1323294,20.0241898 C49.4398694,19.2982173 49.8613618,18.6684051 50.3958782,18.1371147 C50.9282531,17.6079529 51.5468569,17.1884038 52.2498185,16.8792897 C52.9580094,16.5678762 53.7184276,16.4122738 54.5282565,16.4122738 C55.3377557,16.4122738 56.1012922,16.5677446 56.8161252,16.8787701 C57.5265394,17.187873 58.1491123,17.6075705 58.681872,18.1371147 C59.2163884,18.6684051 59.6378808,19.2982173 59.9454208,20.0241898 C60.2540872,20.7528214 60.4084779,21.5272807 60.4084779,22.344667 C60.4084779,23.433296 60.1484136,24.4288485 59.6287563,25.3247931 Z M54.5388751,18.8906373 C54.083403,18.8906373 53.6556401,18.9773998 53.2530305,19.1509289 C52.8496478,19.3247912 52.5018806,19.5648576 52.2073696,19.8721481 C51.910399,20.182005 51.673408,20.5435755 51.4956115,20.958768 C51.3204724,21.367755 51.2330068,21.8017876 51.2330068,22.2639654 C51.2330068,22.7261432 51.3204724,23.1601758 51.4956115,23.5691627 C51.6729828,23.9833623 51.9091634,24.340479 52.2049115,24.6426316 C52.5008533,24.9449822 52.8508712,25.1866021 53.2570032,25.3681327 C53.658551,25.5476141 54.0849036,25.6372935 54.5388751,25.6372935 C55.0070004,25.6372935 55.4402804,25.5474778 55.8415232,25.3681327 C56.2476553,25.1866021 56.5976731,24.9449822 56.893615,24.6426316 C57.1883468,24.3415174 57.420429,23.9858552 57.5907764,23.5733248 C57.7601138,23.1632401 57.8447434,22.7277269 57.8447434,22.2639654 C57.8447434,21.8002039 57.7601138,21.3646906 57.5907764,20.954606 C57.4200175,20.541079 57.1871236,20.1809576 56.8911568,19.8721481 C56.5966459,19.5648576 56.2488787,19.3247912 55.8454959,19.1509289 C55.4431838,18.9775281 55.0084889,18.8906373 54.5388751,18.8906373 Z M44.7373758,11.0424862 C45.113936,11.0424862 45.4360994,11.1748351 45.7038755,11.4395367 C45.9716517,11.7042384 46.1055377,12.0287065 46.1055377,12.4129508 C46.1055377,12.7886564 45.9716517,13.1131245 45.7038755,13.3863649 C45.4360994,13.6596053 45.113936,13.7962234 44.7373758,13.7962234 C44.3859196,13.7962234 44.0763081,13.6574706 43.808532,13.3799608 C43.5407558,13.1024511 43.4068698,12.7801176 43.4068698,12.4129508 C43.4068698,12.0543228 43.5407558,11.7362586 43.808532,11.4587488 C44.0763081,11.181239 44.3859196,11.0424862 44.7373758,11.0424862 Z M43.4068698,16.4122738 L46.1055377,16.4122738 L46.1055377,28.2533438 L43.4068698,28.2533438 L43.4068698,16.4122738 Z M38.2947368,6.7763183 L40.9934048,6.7763183 L40.9934048,28.2571673 L38.2947368,28.2571673 L38.2947368,6.7763183 Z"></path>
                    <path d="M2.44516687,30.3773844 C2.45103316,29.1059713 3.50742416,28.0206127 4.72591734,28.0341171 C5.95320995,28.0477169 6.97994868,29.1339343 6.97490734,30.4134119 C6.97004931,31.6696983 5.92222859,32.7432704 4.70240634,32.7419342 C3.47731358,32.7405504 2.43925474,31.6532354 2.44516687,30.3773844 Z M28.6897705,24.0404993 C28.7009118,22.9573891 29.6281111,22.0135532 30.6801445,22.0144241 C31.7732246,22.015362 32.6720822,22.9624804 32.663091,24.1038057 C32.6544908,25.1989073 31.7452086,26.1093817 30.6680911,26.1012758 C29.5858916,26.0931699 28.6783035,25.1478602 28.6897705,24.0404993 Z M1.1611459,18.0023282 C0.506040467,17.9896051 -0.0120418842,17.4123846 0.000212997286,16.7088493 C0.0120818982,16.028521 0.55414329,15.4732351 1.20085365,15.478935 C1.87231501,15.4848894 2.3965248,16.0598707 2.38349796,16.7762816 C2.37090534,17.4723357 1.82956767,18.0153057 1.1611459,18.0023282 Z M28.5980458,3.2081696 C27.7362281,3.20147762 27.0615095,2.50128931 27.0595726,1.61149487 C27.0576358,0.702500827 27.7406441,-0.00143180888 28.6233797,2.18698884e-06 C29.5071999,0.00143618285 30.1830031,0.704412822 30.1787421,1.61802752 C30.174481,2.52447224 29.4879864,3.21510058 28.5980458,3.2081696 Z M16.9709029,5.60927867 C23.0888147,5.60757615 28.0112234,10.6814258 28.0031958,16.9809959 C27.9952554,23.1957986 23.0255537,28.2859566 16.9704666,28.2813867 C10.9030764,28.2767272 5.95326914,23.1659598 5.96024967,16.9131641 C5.9672302,10.6716588 10.8965321,5.61107079 16.9709029,5.60927867 Z M13.2350291,22.9786287 C14.7929941,22.9786287 15.2429476,21.1168697 16.8873532,21.1168697 C18.5317588,21.1168697 18.9817122,22.9786287 20.5396772,22.9786287 C21.8142834,22.9786287 22.8475955,21.9156503 22.8475955,20.6047798 C22.8475955,19.2938143 21.8142834,18.2308358 20.5396772,18.2308358 C18.9817122,18.2308358 18.5317588,20.0925948 16.8873532,20.0925948 C15.972192,20.0925948 15.3977086,19.4973957 14.8547506,18.9387591 C14.3117926,18.3802176 13.7330088,17.7896318 13.7330088,16.8482697 C13.7330088,15.1569559 15.5430398,14.6941671 15.5430398,13.0916645 C15.5430398,11.780699 14.5096353,10.7179107 13.2350291,10.7179107 C11.9604229,10.7179107 10.9271109,11.780699 10.9271109,13.0916645 C10.9271109,14.6941671 12.7371419,15.1569559 12.7371419,16.8482697 C12.7371419,18.5394885 10.9271109,19.0022773 10.9271109,20.6047798 C10.9271109,21.9156503 11.9604229,22.9786287 13.2350291,22.9786287 Z" id="Combined-Shape"></path>
                </g>
            </g>
        </g>
    </g>
</svg>