<svg width="21px" height="21px" viewBox="0 0 21 21" version="1.1" xmlns="http://www.w3.org/2000/svg" xmlns:xlink="http://www.w3.org/1999/xlink">
    <!-- Generator: Sketch 46.2 (44496) - http://www.bohemiancoding.com/sketch -->
    <desc>Created with Sketch.</desc>
    <defs></defs>
    <g id="Page-1" stroke="none" stroke-width="1" fill="none" fill-rule="evenodd">
        <g id="Default" transform="translate(-20.000000, -209.000000)" fill-rule="nonzero" stroke="#7C92A7" fill="#7C92A7">
            <g id="Menu">
                <g id="Icons" transform="translate(19.000000, 113.000000)">
                    <path d="M15.7818909,97 L7.12727273,97 C4.30007273,97 2,99.2783528 2,102.078855 L2,110.65153 C2,113.452249 4.30007273,115.730386 7.12727273,115.730386 L15.7818909,115.730386 C18.6088727,115.730386 20.9091636,113.452249 20.9091636,110.65153 L20.9091636,102.078855 C20.9091636,99.2783528 18.6088727,97 15.7818909,97 Z M19.8182545,104.030216 L18.9806545,103.200742 C17.5908364,101.824048 15.3376727,101.824048 13.9480727,103.200742 L9.95512727,107.155549 L9.08981818,106.298411 C7.7,104.921717 5.44683636,104.921717 4.05723636,106.298411 L3.09090909,107.255613 L3.09090909,102.078855 C3.09090909,99.8744159 4.9016,98.0806075 7.12727273,98.0806075 L15.7818909,98.0806075 C18.0073455,98.0806075 19.8182545,99.8744159 19.8182545,102.078855 L19.8182545,104.030216 Z" id="Combined-Shape"></path>
                </g>
            </g>
        </g>
    </g>
</svg>
