<svg width="24px" height="19px" viewBox="0 0 24 19" version="1.1" xmlns="http://www.w3.org/2000/svg" xmlns:xlink="http://www.w3.org/1999/xlink">
    <!-- Generator: Sketch 46.2 (44496) - http://www.bohemiancoding.com/sketch -->
    <desc>Created with Sketch.</desc>
    <defs></defs>
    <g id="Page-1" stroke="none" stroke-width="1" fill="none" fill-rule="evenodd">
        <g id="Default" transform="translate(-19.000000, -258.000000)" fill-rule="nonzero" fill="#7C92A7">
            <g id="Menu">
                <g id="Icons" transform="translate(19.000000, 113.000000)">
                    <path d="M23.3824,157.064982 C23.596,157.17751 23.7304,157.402564 23.7304,157.648222 C23.7304,157.89388 23.596,158.118143 23.3816,158.229877 L13.0592,163.63594 C12.3112,164.027408 11.4224,164.027408 10.6736,163.63594 L0.3488,158.229877 C0.1344,158.118935 0,157.894673 0,157.648222 C0,157.401772 0.1344,157.17751 0.3496,157.064982 L3.6064,155.35964 L9.9648,158.688703 C10.5504,158.99538 11.208,159.157831 11.8664,159.157831 C12.5256,159.157831 13.1848,158.99538 13.7712,158.687118 L20.1264,155.35964 L23.3824,157.064982 Z M0.3488,151.86654 C0.1344,151.754013 0,151.528958 0,151.2833 C0,151.037642 0.1344,150.811795 0.3488,150.700853 L10.6728,145.29479 C11.048,145.097471 11.456,145 11.8664,145 C12.276,145 12.6848,145.097471 13.06,145.29479 L23.3816,150.701645 C23.5968,150.812588 23.7304,151.037642 23.7304,151.284093 C23.7304,151.528958 23.596,151.754013 23.3816,151.86654 L13.0592,157.271018 C12.6848,157.467545 12.276,157.5666 11.8656,157.5666 C11.4568,157.5666 11.048,157.46913 10.6736,157.272603 L0.3488,151.86654 Z" id="Combined-Shape"></path>
                </g>
            </g>
        </g>
    </g>
</svg>
