<?xml version="1.0" encoding="UTF-8"?>
<svg width="9px" height="10px" viewBox="0 0 9 10" version="1.1" xmlns="http://www.w3.org/2000/svg" xmlns:xlink="http://www.w3.org/1999/xlink">
    <!-- Generator: Sketch 48.2 (47327) - http://www.bohemiancoding.com/sketch -->
    <title>Group</title>
    <desc>Created with Sketch.</desc>
    <defs></defs>
    <g id="2" stroke="none" stroke-width="1" fill="none" fill-rule="evenodd" transform="translate(-1107.000000, -249.000000)">
        <g id="Group-3" transform="translate(1083.000000, 62.000000)" fill="#7C92A7" fill-rule="nonzero">
            <g id="Logout" transform="translate(24.000000, 183.000000)">
                <g id="Group" transform="translate(0.000000, 4.800000)">
                    <g id="a-link">
                        <g id="a">
                            <path d="M1.77333333,0.18 C1.68409549,0.09109375 1.5752066,0.0464783654 1.44666667,0.0461538462 L0.513333333,0.0461538462 C0.384793403,0.0464783654 0.274348958,0.09109375 0.182,0.18 C0.0921059028,0.271334135 0.0469947917,0.380564904 0.0466666667,0.507692308 L0.0466666667,7.89230769 C0.0469947917,8.0194351 0.0921059028,8.1271274 0.182,8.21538462 C0.274348958,8.30736779 0.384793403,8.35352163 0.513333333,8.35384615 L1.44666667,8.35384615 C1.5752066,8.35352163 1.68409549,8.30736779 1.77333333,8.21538462 C1.86633854,8.1271274 1.91300521,8.0194351 1.91333333,7.89230769 C1.91300521,7.76518029 1.86633854,7.65594952 1.77333333,7.56461538 C1.68409549,7.47570913 1.5752066,7.43109375 1.44666667,7.43076923 L0.98,7.43076923 L0.98,0.969230769 L1.44666667,0.969230769 C1.5752066,0.96890625 1.68409549,0.922752404 1.77333333,0.830769231 C1.86633854,0.742512019 1.91300521,0.634819712 1.91333333,0.507692308 C1.91300521,0.380564904 1.86633854,0.271334135 1.77333333,0.18 Z M8.21333333,4.52307692 C8.30633854,4.43481971 8.35300521,4.3271274 8.35333333,4.2 C8.35300521,4.0728726 8.30633854,3.96364183 8.21333333,3.87230769 L6.34666667,2.02615385 C6.25742882,1.9372476 6.14853993,1.89263221 6.02,1.89230769 C5.89146007,1.89263221 5.78101563,1.9372476 5.68866667,2.02615385 C5.59877257,2.11748798 5.55366146,2.22671875 5.55333333,2.35384615 C5.55366146,2.48097356 5.59877257,2.58866587 5.68866667,2.67692308 L6.762,3.73846154 L2.28666667,3.73846154 C2.15812674,3.73878606 2.04768229,3.78340144 1.95533333,3.87230769 C1.86543924,3.96364183 1.82032813,4.0728726 1.82,4.2 C1.82032813,4.3271274 1.86543924,4.43481971 1.95533333,4.52307692 C2.04768229,4.6150601 2.15812674,4.66121394 2.28666667,4.66153846 L6.762,4.66153846 L5.68866667,5.71846154 C5.59877257,5.80979567 5.55366146,5.91902644 5.55333333,6.04615385 C5.55366146,6.17328125 5.59877257,6.28097356 5.68866667,6.36923077 C5.78101563,6.46121394 5.89146007,6.50736779 6.02,6.50769231 C6.14853993,6.50736779 6.25742882,6.46121394 6.34666667,6.36923077 L8.21333333,4.52307692 Z" id="Shape"></path>
                        </g>
                    </g>
                </g>
            </g>
        </g>
    </g>
</svg>